<svg xmlns="http://www.w3.org/2000/svg" xmlns:xlink="http://www.w3.org/1999/xlink" width="64" height="64" version="1.1" viewBox="0 0 48 48"><g id="surface54461"><path style="stroke:none;fill-rule:nonzero;fill:#3bd480;fill-opacity:1" d="M 24 48 C 10.746094 48 0 37.253906 0 24 C 0 10.746094 10.746094 0 24 0 C 37.253906 0 48 10.746094 48 24 C 48 37.253906 37.253906 48 24 48 Z M 24 48"/><path style="stroke:none;fill-rule:nonzero;fill:#fff;fill-opacity:1" d="M 16.546875 2.371094 C 16.511719 2.378906 16.472656 2.386719 16.441406 2.398438 C 16.15625 2.460938 15.921875 2.660156 15.820312 2.933594 C 15.714844 3.207031 15.753906 3.511719 15.925781 3.75 L 17.761719 6.503906 C 14.65625 8.136719 12.421875 10.953125 11.902344 14.304688 C 11.902344 14.316406 11.902344 14.320312 11.902344 14.332031 C 11.902344 14.34375 11.902344 14.347656 11.902344 14.359375 C 11.902344 14.386719 11.902344 14.414062 11.902344 14.441406 C 11.902344 14.457031 11.902344 14.476562 11.902344 14.496094 C 11.902344 14.539062 11.902344 14.585938 11.902344 14.628906 L 11.902344 15.84375 C 11.390625 15.542969 10.808594 15.359375 10.175781 15.359375 C 8.277344 15.359375 6.71875 16.914062 6.71875 18.8125 L 6.71875 29.183594 C 6.71875 31.082031 8.277344 32.636719 10.175781 32.636719 C 10.808594 32.636719 11.390625 32.453125 11.902344 32.152344 L 11.902344 34.367188 C 11.902344 35.789062 13.074219 36.957031 14.496094 36.957031 L 15.359375 36.957031 L 15.359375 42.140625 C 15.359375 44.042969 16.914062 45.597656 18.816406 45.597656 C 20.714844 45.597656 22.273438 44.042969 22.273438 42.140625 L 22.273438 36.957031 L 25.726562 36.957031 L 25.726562 42.140625 C 25.726562 44.042969 27.285156 45.597656 29.183594 45.597656 C 31.085938 45.597656 32.640625 44.042969 32.640625 42.140625 L 32.640625 36.957031 L 33.503906 36.957031 C 34.925781 36.957031 36.097656 35.789062 36.097656 34.367188 L 36.097656 32.152344 C 36.609375 32.453125 37.191406 32.636719 37.824219 32.636719 C 39.722656 32.636719 41.28125 31.082031 41.28125 29.183594 L 41.28125 18.8125 C 41.28125 16.914062 39.722656 15.359375 37.824219 15.359375 C 37.191406 15.359375 36.609375 15.542969 36.097656 15.84375 L 36.097656 14.65625 C 36.105469 14.574219 36.105469 14.496094 36.097656 14.414062 C 36.097656 14.402344 36.097656 14.394531 36.097656 14.386719 C 36.097656 14.375 36.097656 14.371094 36.097656 14.359375 C 35.59375 10.984375 33.363281 8.144531 30.238281 6.503906 L 32.074219 3.75 C 32.285156 3.457031 32.292969 3.066406 32.09375 2.765625 C 31.898438 2.464844 31.53125 2.316406 31.183594 2.398438 C 30.960938 2.449219 30.761719 2.582031 30.640625 2.777344 L 28.617188 5.773438 C 27.191406 5.261719 25.625 4.992188 24 4.992188 C 22.375 4.992188 20.808594 5.261719 19.382812 5.773438 L 17.359375 2.777344 C 17.1875 2.5 16.871094 2.34375 16.546875 2.371094 Z M 24 6.71875 C 25.625 6.71875 27.144531 7.035156 28.480469 7.609375 C 28.507812 7.621094 28.535156 7.628906 28.5625 7.636719 C 31.265625 8.820312 33.234375 11.039062 33.988281 13.628906 L 14.011719 13.628906 C 14.757812 11.074219 16.683594 8.886719 19.328125 7.691406 C 19.386719 7.671875 19.441406 7.644531 19.492188 7.609375 C 20.835938 7.027344 22.367188 6.71875 24 6.71875 Z M 19.246094 9.308594 C 18.527344 9.308594 17.953125 9.890625 17.953125 10.605469 C 17.953125 11.324219 18.527344 11.902344 19.246094 11.902344 C 19.964844 11.902344 20.542969 11.324219 20.542969 10.605469 C 20.542969 9.890625 19.964844 9.308594 19.246094 9.308594 Z M 28.753906 9.308594 C 28.035156 9.308594 27.457031 9.890625 27.457031 10.605469 C 27.457031 11.324219 28.035156 11.902344 28.753906 11.902344 C 29.472656 11.902344 30.046875 11.324219 30.046875 10.605469 C 30.046875 9.890625 29.472656 9.308594 28.753906 9.308594 Z M 13.632812 15.359375 L 34.367188 15.359375 L 34.367188 34.367188 C 34.367188 34.851562 33.988281 35.230469 33.503906 35.230469 L 26.753906 35.230469 C 26.640625 35.207031 26.519531 35.207031 26.402344 35.230469 L 16.386719 35.230469 C 16.269531 35.207031 16.148438 35.207031 16.035156 35.230469 L 14.496094 35.230469 C 14.011719 35.230469 13.632812 34.851562 13.632812 34.367188 Z M 10.175781 17.085938 C 11.140625 17.085938 11.902344 17.847656 11.902344 18.8125 L 11.902344 29.183594 C 11.902344 30.148438 11.140625 30.910156 10.175781 30.910156 C 9.210938 30.910156 8.449219 30.148438 8.449219 29.183594 L 8.449219 18.8125 C 8.449219 17.847656 9.210938 17.085938 10.175781 17.085938 Z M 37.824219 17.085938 C 38.789062 17.085938 39.550781 17.847656 39.550781 18.8125 L 39.550781 29.183594 C 39.550781 30.148438 38.789062 30.910156 37.824219 30.910156 C 36.859375 30.910156 36.097656 30.148438 36.097656 29.183594 L 36.097656 18.8125 C 36.097656 17.847656 36.859375 17.085938 37.824219 17.085938 Z M 17.089844 36.957031 L 20.542969 36.957031 L 20.542969 42.140625 C 20.542969 43.109375 19.78125 43.871094 18.816406 43.871094 C 17.851562 43.871094 17.089844 43.109375 17.089844 42.140625 Z M 27.457031 36.957031 L 30.910156 36.957031 L 30.910156 42.140625 C 30.910156 43.109375 30.148438 43.871094 29.183594 43.871094 C 28.21875 43.871094 27.457031 43.109375 27.457031 42.140625 Z M 27.457031 36.957031"/></g></svg>