<svg xmlns="http://www.w3.org/2000/svg" width="64" height="64" version="1.1" viewBox="0 0 48 48"><g id="surface2013"><path style="stroke:none;fill-rule:nonzero;fill:#ffd600;fill-opacity:1" d="M 24 48 C 10.746094 48 0 37.253906 0 24 C 0 10.746094 10.746094 0 24 0 C 37.253906 0 48 10.746094 48 24 C 48 37.253906 37.253906 48 24 48 Z M 24 48"/><path style="stroke:none;fill-rule:nonzero;fill:#ffd600;fill-opacity:1" d="M 6.898438 41.101562 L 6.898438 6.898438 L 41.101562 6.898438 L 41.101562 41.101562 Z M 6.898438 41.101562"/><path style="stroke:none;fill-rule:nonzero;fill:#000001;fill-opacity:1" d="M 29.261719 32.5 C 29.917969 33.566406 30.632812 34.589844 32.144531 34.589844 C 33.417969 34.589844 34.085938 33.957031 34.085938 33.085938 C 34.085938 32.039062 33.394531 31.667969 31.996094 31.058594 L 31.230469 30.730469 C 29.015625 29.792969 27.546875 28.617188 27.546875 26.132812 C 27.546875 23.84375 29.296875 22.101562 32.035156 22.101562 C 33.988281 22.101562 35.386719 22.777344 36.398438 24.546875 L 34.011719 26.070312 C 33.484375 25.132812 32.917969 24.765625 32.035156 24.765625 C 31.136719 24.765625 30.570312 25.332031 30.570312 26.070312 C 30.570312 26.988281 31.140625 27.359375 32.453125 27.925781 L 33.222656 28.253906 C 35.828125 29.363281 37.300781 30.496094 37.300781 33.046875 C 37.300781 35.792969 35.128906 37.300781 32.21875 37.300781 C 29.367188 37.300781 27.75 35.871094 26.851562 34.101562 Z M 18.253906 32.578125 C 18.734375 33.4375 19.464844 34.101562 20.515625 34.101562 C 21.519531 34.101562 22.101562 33.703125 22.101562 32.160156 L 22.101562 22.101562 L 25.265625 22.101562 L 25.265625 32.644531 C 25.265625 35.84375 23.410156 37.300781 20.703125 37.300781 C 18.253906 37.300781 16.488281 35.640625 15.765625 34.101562 Z M 18.253906 32.578125"/></g></svg>