<svg xmlns="http://www.w3.org/2000/svg" width="64" height="64" viewBox="0 0 64 64"><path fill="#85cbf8" d="M31 3A28 28 0 1 0 31 59A28 28 0 1 0 31 3Z"/><path fill="#7bbeeb" d="M31,3V59A28,28,0,0,0,31,3Z"/><path fill="#8d6c9f" d="M53.85,48.82a28.91,28.91,0,0,0,0-35.65l0,0a.93.93,0,0,0-.1-.11A28.95,28.95,0,0,0,8.31,13a1,1,0,0,0-.15.15s0,0,0,.07a28.91,28.91,0,0,0,0,35.62s0,0,0,.06a1,1,0,0,0,.2.22A28.95,28.95,0,0,0,53.74,49a.94.94,0,0,0,.1-.1ZM51.46,13.42a31.54,31.54,0,0,1-6.68,2.74C43.19,11.26,40.86,7.4,38.09,5A27,27,0,0,1,51.46,13.42ZM30,4.08V18a50.92,50.92,0,0,1-10.83-1.31C21.53,9.51,25.56,4.71,30,4.08Zm2,0c4.44.63,8.47,5.43,10.83,12.59A50.93,50.93,0,0,1,32,18ZM23.91,5c-2.77,2.45-5.11,6.31-6.69,11.2a31.53,31.53,0,0,1-6.68-2.74A27,27,0,0,1,23.91,5ZM9.27,15a33.16,33.16,0,0,0,7.38,3.08,46,46,0,0,0-1,4.78A1,1,0,0,0,16.46,24h.16a1,1,0,0,0,1-.84,43.26,43.26,0,0,1,1-4.57A52.85,52.85,0,0,0,30,20v3a1,1,0,0,0,2,0V20a52.85,52.85,0,0,0,11.4-1.4,43.26,43.26,0,0,1,1,4.57,1,1,0,0,0,2-.32,46.09,46.09,0,0,0-1-4.77A33.17,33.17,0,0,0,52.73,15a26.93,26.93,0,0,1,0,32,33.19,33.19,0,0,0-7.39-3.08c.33-1.2.62-2.45.86-3.75a1,1,0,1,0-2-.36c-.23,1.25-.5,2.44-.81,3.59A52.84,52.84,0,0,0,32,42V40a1,1,0,0,0-2,0v2a52.85,52.85,0,0,0-11.41,1.4c-.31-1.15-.59-2.35-.81-3.59a1,1,0,1,0-2,.36c.24,1.3.53,2.55.86,3.75A33.18,33.18,0,0,0,9.27,47a26.93,26.93,0,0,1,0-32ZM30,57.92c-4.47-.62-8.48-5.37-10.84-12.59A50.91,50.91,0,0,1,30,44Zm2,0V44a50.92,50.92,0,0,1,10.84,1.32C40.48,52.55,36.47,57.3,32,57.92ZM10.54,48.58a31.56,31.56,0,0,1,6.7-2.74c1.6,4.89,3.95,8.77,6.73,11.22A27,27,0,0,1,10.54,48.58ZM38,57.07c2.78-2.45,5.13-6.33,6.73-11.22a31.55,31.55,0,0,1,6.7,2.74A27,27,0,0,1,38,57.07Z"/><path fill="#fff" d="M11 36.29A1 1 0 0 0 12 37a1 1 0 0 0 1-.65L15 30.85l2.06 5.5A1 1 0 0 0 18 37h0a1 1 0 0 0 .92-.71l3-10A1 1 0 0 0 20 25.71l-2.15 7.16-2-5.22a1 1 0 0 0-1.87 0l-2 5.22L10 25.71A1 1 0 0 0 8 26.29zM27 36.29A1 1 0 0 0 28 37a1 1 0 0 0 1-.65L31 30.85l2.06 5.5A1 1 0 0 0 34 37h0a1 1 0 0 0 .92-.71l3-10A1 1 0 0 0 36 25.71l-2.15 7.16-2-5.22a1 1 0 0 0-1.87 0l-2 5.22L26 25.71a1 1 0 0 0-1.92.57zM43 36.29A1 1 0 0 0 44 37a1 1 0 0 0 1-.65L47 30.85l2.06 5.5A1 1 0 0 0 50 37h0a1 1 0 0 0 .92-.71l3-10A1 1 0 0 0 52 25.71l-2.15 7.16-2-5.22a1 1 0 0 0-1.87 0l-2 5.22L42 25.71a1 1 0 1 0-1.92.57z"/></svg>